<svg width="32" height="33" viewBox="0 0 32 33" fill="none" xmlns="http://www.w3.org/2000/svg">
<g id="ei:user">
<path id="Vector" d="M16.064 27.3801C10.048 27.3801 5.18402 22.5161 5.18402 16.5001C5.18402 10.4841 10.048 5.62012 16.064 5.62012C22.08 5.62012 26.944 10.4841 26.944 16.5001C26.944 22.5161 22.016 27.3801 16.064 27.3801ZM16.064 6.90012C10.752 6.90012 6.46402 11.1881 6.46402 16.5001C6.46402 21.8121 10.752 26.1001 16.064 26.1001C21.376 26.1001 25.664 21.8121 25.664 16.5001C25.664 11.1881 21.312 6.90012 16.064 6.90012Z" fill="#333333"/>
<path id="Vector_2" d="M9.79201 24.3719L8.64001 23.8599C8.96001 23.0919 9.98401 22.6439 11.072 22.1319C12.16 21.6199 13.504 21.0439 13.504 20.3399V19.3799C13.12 19.0599 12.48 18.3559 12.352 17.3319C12.032 17.0119 11.52 16.4359 11.52 15.6679C11.52 15.2199 11.712 14.8359 11.84 14.5799C11.712 14.0679 11.584 13.1079 11.584 12.3399C11.584 9.84393 13.312 8.17993 16.064 8.17993C16.832 8.17993 17.792 8.37193 18.304 8.94793C19.52 9.20393 20.544 10.6119 20.544 12.3399C20.544 13.4279 20.352 14.3239 20.224 14.7719C20.352 14.9639 20.48 15.2839 20.48 15.6679C20.48 16.4999 20.032 17.0759 19.648 17.3319C19.52 18.3559 18.944 18.9959 18.56 19.3159V20.3399C18.56 20.9159 19.712 21.3639 20.736 21.7479C21.952 22.1959 23.232 22.7079 23.68 23.7319L22.464 24.1799C22.272 23.6679 21.248 23.2839 20.288 22.9639C18.88 22.4519 17.28 21.8759 17.28 20.4039V18.7399L17.6 18.5479C17.6 18.5479 18.368 18.0359 18.368 17.0119V16.5639L18.752 16.3719C18.816 16.3719 19.136 16.1799 19.136 15.6679C19.136 15.5399 19.008 15.3479 18.944 15.2839L18.688 15.0279L18.816 14.7079C18.816 14.7079 19.136 13.6839 19.136 12.4039C19.136 11.1879 18.432 10.2919 17.856 10.2919H17.472L17.28 9.97193C17.28 9.71593 16.832 9.45993 16.064 9.45993C14.08 9.45993 12.864 10.5479 12.864 12.3399C12.864 13.1719 13.184 14.5799 13.184 14.5799L13.248 14.8999L12.992 15.2199C12.928 15.2199 12.8 15.4119 12.8 15.6679C12.8 15.9879 13.184 16.3719 13.376 16.4999L13.632 16.6919V17.0119C13.632 17.9719 14.464 18.4839 14.464 18.5479L14.784 18.7399V20.4039C14.784 21.9399 13.12 22.7079 11.584 23.3479C10.88 23.6039 9.92001 24.0519 9.79201 24.3719Z" fill="#333333"/>
</g>
</svg>
