<svg width="32" height="33" viewBox="0 0 32 33" fill="none" xmlns="http://www.w3.org/2000/svg">
<g id="healthicons:doctor-male-outline">
<g id="Group">
<path id="Vector" fill-rule="evenodd" clip-rule="evenodd" d="M11.0993 6.71737L11.136 6.55737C11.206 6.26004 11.3207 5.8227 11.5573 5.39204C11.7987 4.95337 12.1727 4.5087 12.7593 4.21604C13.344 3.9247 14.0767 3.81604 14.9827 3.93604C15.9827 4.06937 17.9913 4.40004 19.766 5.3027C21.5507 6.2107 23.2227 7.7727 23.2227 10.374C23.2227 11.718 22.7027 13.16 22.1987 14.1C21.9567 14.552 21.6693 14.984 21.3813 15.2167C21.3153 15.27 21.2213 15.3367 21.1047 15.3834C20.7846 16.4351 20.1476 17.3623 19.2806 18.0382C18.4137 18.7141 17.3591 19.1058 16.2611 19.1596C15.1631 19.2135 14.0753 18.9269 13.1463 18.339C12.2174 17.7511 11.4927 16.8907 11.0713 15.8754L11.0553 15.878L10.8187 15.5907L10.818 15.5894L10.8167 15.588L10.8133 15.5834L10.802 15.57C10.7449 15.499 10.69 15.4263 10.6373 15.352C10.4934 15.1524 10.3577 14.9469 10.2307 14.736C9.91732 14.2174 9.53932 13.4787 9.29732 12.6167C9.05599 11.7547 8.94532 10.744 9.19866 9.70137C9.44532 8.6867 10.0273 7.68804 11.0813 6.79604L11.0993 6.71737ZM12.2193 15.1427C12.5085 15.9742 13.0637 16.6872 13.799 17.1711C14.5344 17.6551 15.4088 17.8832 16.2868 17.8199C17.1649 17.7567 17.9976 17.4057 18.656 16.8213C19.3144 16.2369 19.7617 15.4517 19.9287 14.5874L20.004 14.6127C20.0013 14.575 20 14.5372 20 14.4994C20 13.396 19.8467 12.626 19.704 12.146C19.6761 12.0526 19.6452 11.9601 19.6113 11.8687L19.584 11.87H19.5573C19.0588 11.8808 18.5604 11.8428 18.0693 11.7567C16.9247 11.5634 15.3747 11.0807 13.5493 9.9627C13.5093 10.052 13.4693 10.1527 13.4293 10.2647C13.2987 10.6347 13.1913 11.074 13.0987 11.538C13.0167 11.9467 12.9493 12.358 12.8853 12.7434L12.8607 12.8954C12.792 13.3087 12.7233 13.7147 12.6433 14.0087C12.5033 14.5194 12.3607 14.882 12.2193 15.142M11.286 13.9C10.9849 13.3832 10.7484 12.8313 10.582 12.2567C10.3827 11.546 10.3093 10.7767 10.4947 10.016C10.6747 9.27604 11.11 8.49803 12.0053 7.7607C12.1667 7.65137 12.24 7.5047 12.26 7.46537V7.4647C12.295 7.39262 12.3231 7.3174 12.344 7.24004C12.3653 7.16404 12.3887 7.06004 12.4107 6.9667L12.434 6.86204C12.4973 6.59337 12.5793 6.3007 12.726 6.03337C12.8687 5.7747 13.064 5.55337 13.3547 5.4087C13.6467 5.2627 14.0987 5.1627 14.8067 5.25737C15.7753 5.38604 17.5973 5.6947 19.1613 6.4907C20.7147 7.2807 21.8893 8.4767 21.8893 10.3734C21.8893 11.2467 21.596 12.24 21.2427 13.0234C21.176 12.5127 21.08 12.0954 20.9813 11.7647C20.9125 11.5284 20.8268 11.2973 20.7247 11.0734C20.6862 10.9904 20.6439 10.9092 20.598 10.83L20.5867 10.812L20.5827 10.8054L20.5807 10.802L20.5793 10.8L20.3327 10.4174L19.8913 10.506L19.882 10.508L19.8173 10.5167C19.7181 10.5278 19.6185 10.5344 19.5187 10.5367C19.1076 10.5446 18.6968 10.5125 18.292 10.4407C17.2167 10.2594 15.6367 9.76537 13.7173 8.48737L13.2507 8.17604L12.8647 8.5827C12.5467 8.91737 12.3307 9.37403 12.1727 9.8187C12.0113 10.2754 11.8893 10.7854 11.7913 11.2747C11.7101 11.6911 11.6363 12.109 11.57 12.528L11.5447 12.6774C11.4733 13.1114 11.4153 13.4427 11.3567 13.6574C11.3348 13.7387 11.3112 13.8196 11.286 13.9Z" fill="#333333"/>
<path id="Vector_2" fill-rule="evenodd" clip-rule="evenodd" d="M11.9427 19.7368C11.8013 19.4555 11.6273 19.1081 11.3333 19.1755C7.73067 19.9955 4 22.3628 4 24.8801V28.5001H28V24.8801C28 22.8975 25.6853 21.0075 22.942 19.8935L22.9387 19.8868C22.9356 19.8808 22.9325 19.8748 22.9293 19.8688L22.9073 19.8795C22.1787 19.5861 21.42 19.3461 20.6667 19.1755C20.3313 19.0988 19.9847 19.5601 19.8333 19.8488H12C11.9813 19.8141 11.9627 19.7755 11.9427 19.7368ZM20.9353 20.6168C21.2267 20.6975 21.5167 20.7881 21.8027 20.8881C21.8107 21.1161 21.7933 21.3855 21.756 21.6601C21.718 21.9445 21.6574 22.2254 21.5747 22.5001H20.6667C20.5429 22.5002 20.4216 22.5347 20.3163 22.5998C20.2111 22.6649 20.126 22.7581 20.0707 22.8688L19.404 24.2021C19.3576 24.2946 19.3334 24.3967 19.3333 24.5001V25.8335C19.3333 26.0103 19.4036 26.1799 19.5286 26.3049C19.6536 26.4299 19.8232 26.5001 20 26.5001H21.3333V25.1668H20.6667V24.6575L21.0787 23.8335H22.9213L23.3333 24.6575V25.1668H22.6667V26.5001H24C24.1768 26.5001 24.3464 26.4299 24.4714 26.3049C24.5964 26.1799 24.6667 26.0103 24.6667 25.8335V24.5001C24.6666 24.3967 24.6424 24.2946 24.596 24.2021L23.9293 22.8688C23.874 22.7581 23.7889 22.6649 23.6837 22.5998C23.5784 22.5347 23.4571 22.5002 23.3333 22.5001H22.956C23.0384 22.1473 23.0936 21.7887 23.1213 21.4275C23.7713 21.7348 24.3753 22.0875 24.8987 22.4688C26.18 23.4035 26.6667 24.2781 26.6667 24.8801V27.1668H5.33333V24.8801C5.33333 24.2781 5.82 23.4035 7.10133 22.4688C7.74533 21.9988 8.514 21.5735 9.338 21.2215C9.36089 21.7527 9.44614 22.2795 9.592 22.7908L9.59733 22.8095C9.19878 23.0616 8.90214 23.4465 8.75982 23.8961C8.61751 24.3457 8.63866 24.8312 8.81955 25.2667C9.00044 25.7023 9.32942 26.0599 9.7484 26.2764C10.1674 26.4929 10.6494 26.5544 11.1093 26.45C11.5692 26.3456 11.9775 26.0821 12.2619 25.7059C12.5463 25.3297 12.6887 24.8651 12.6638 24.3941C12.6389 23.9232 12.4484 23.4762 12.1259 23.132C11.8034 22.7879 11.3697 22.5688 10.9013 22.5135C10.8161 22.2345 10.7537 21.9492 10.7147 21.6601C10.6776 21.4017 10.6622 21.1405 10.6687 20.8795C10.6706 20.8296 10.6739 20.7798 10.6787 20.7301C10.7587 20.7055 10.8387 20.6815 10.9187 20.6588L11.1953 21.1828H20.638L20.9353 20.6168ZM10.6667 25.1775C11.0253 25.1775 11.3333 24.8841 11.3333 24.5008C11.3333 24.1181 11.0253 23.8241 10.6667 23.8241C10.308 23.8241 10 24.1175 10 24.5008C10 24.8835 10.308 25.1775 10.6667 25.1775Z" fill="#333333"/>
</g>
</g>
</svg>
